HIERARCHY
ROOT Hips
{
    OFFSET 0.0 0.0 0.0
    CHANNELS 6 Xposition Yposition Zposition Zrotation Xrotation Yrotation
    JOINT Spine
    {
        OFFSET 0.0 5.0 0.0
        CHANNELS 3 Zrotation Xrotation Yrotation
        JOINT Chest
        {
            OFFSET 0.0 5.0 0.0
            CHANNELS 3 Zrotation Xrotation Yrotation
            JOINT Neck
            {
                OFFSET 0.0 8.0 0.0
                CHANNELS 3 Zrotation Xrotation Yrotation
                JOINT Head
                {
                    OFFSET 0.0 5.0 0.0
                    CHANNELS 3 Zrotation Xrotation Yrotation
                    End Site
                    {
                        OFFSET 0.0 3.0 0.0
                    }
                }
            }
            JOINT LeftShoulder
            {
                OFFSET -5.0 0.0 0.0
                CHANNELS 3 Zrotation Xrotation Yrotation
                JOINT LeftArm
                {
                    OFFSET 0.0 -10.0 0.0
                    CHANNELS 3 Zrotation Xrotation Yrotation
                    JOINT LeftForeArm
                    {
                        OFFSET 0.0 -10.0 0.0
                        CHANNELS 3 Zrotation Xrotation Yrotation
                        End Site
                        {
                            OFFSET 0.0 -3.0 0.0
                        }
                    }
                }
            }
        }
    }
}

MOTION
Frames: 26
Frame Time: 0.033333
970.000000 442.938926 115.538691 0.000000 0.000000 0.000000 0.000000 0.000000 0.000000 29.678605 13.068239 0.000000 180.000000 -15.109471 0.000000 29.744881 -3.290094 -0.000000 150.255119 -6.275600 30.000000 19.983107 -3.498729 0.000000 18.000000 0.533691 0.000000
1354.522934 467.411410 139.207189 0.000000 0.000000 0.000000 0.000000 0.000000 0.000000 150.622570 9.918446 4.973798 -29.377430 -9.446788 4.973798 140.176400 -0.265776 3.759997 -12.221629 -1.483308 29.763441 132.794256 -8.539379 -3.759997 -2.626015 0.410938 0.313953
969.997807 442.887864 142.073557 0.000000 0.000000 0.000000 0.000000 0.000000 0.000000 31.061399 -2.892074 9.635073 180.000000 -8.292899 9.635073 30.285790 -2.351883 7.460697 149.714210 -7.897713 29.057495 19.151579 0.952964 -7.460697 18.000000 0.319924 0.626666
1246.736984 514.278152 128.688714 0.000000 0.000000 0.000000 0.000000 0.000000 0.000000 143.557092 -2.268182 13.690942 -36.442908 -0.448355 13.690942 133.761037 8.852382 11.043737 -156.950665 -4.996009 27.893295 0.000000 0.000000 0.000000 1.928484 0.490862 0.936907
1245.221100 458.637464 123.569417 0.000000 0.000000 0.000000 0.000000 0.000000 0.000000 160.701064 -46.111899 16.886559 -19.298936 34.563625 16.886559 140.193827 -4.650127 14.452610 -157.554825 -4.518905 26.289200 29.500467 5.302791 -14.452610 -15.049953 -0.530279 1.243449
1257.365570 418.514181 112.717883 0.000000 0.000000 0.000000 0.000000 0.000000 0.000000 -143.710676 -0.312289 19.021130 36.289324 -8.717100 19.021130 163.220413 2.571483 17.633558 11.688054 -2.742069 24.270510 152.038385 -1.098834 -17.633558 -2.339948 -0.059731 1.545085
1275.099564 408.163741 103.024122 0.000000 0.000000 0.000000 0.000000 0.000000 0.000000 -132.929531 0.026117 19.960535 47.070469 2.148643 19.960535 173.491912 -1.399983 20.536413 -160.709681 -4.893383 21.869059 33.138793 6.229537 -20.536413 -14.686121 -0.622954 1.840623
1290.611115 384.880857 83.766875 0.000000 0.000000 0.000000 0.000000 0.000000 0.000000 -132.705235 -6.295430 19.645745 47.294765 -8.659330 19.645745 -173.778854 3.065004 23.115397 20.496835 1.702902 19.122720 -161.220290 -4.105761 -23.115397 1.723235 0.355579 2.128896
1302.817154 380.305352 87.619942 0.000000 0.000000 0.000000 0.000000 0.000000 0.000000 -131.493915 0.843186 18.096541 48.506085 6.234744 18.096541 -165.393697 -3.704980 25.329838 23.154815 2.370059 16.074804 -178.200316 -0.084349 -25.329838 0.138141 0.012740 2.408768
1304.997711 379.563582 94.166229 0.000000 0.000000 0.000000 0.000000 0.000000 0.000000 -126.727972 -4.474863 15.410265 53.272028 -0.053199 15.410265 -160.219593 -2.201595 27.144812 28.448880 2.539475 12.773379 -174.368770 -0.548169 -27.144812 0.079526 -0.102059 2.679134
1311.668472 386.890390 95.195035 0.000000 0.000000 0.000000 0.000000 0.000000 0.000000 -122.308728 10.621745 11.755705 57.691272 -7.920436 11.755705 -158.801130 -0.201777 28.531695 150.942637 -3.635216 9.270510 -154.878332 -4.384110 -28.531695 2.695409 0.538332 2.938926
1305.131836 395.180186 84.335713 0.000000 0.000000 0.000000 0.000000 0.000000 0.000000 -125.112810 0.283191 7.362491 54.887190 -15.491711 7.362491 -146.487292 10.109370 29.468618 -175.167369 -3.734573 5.621439 -159.224034 -3.908579 -29.468618 1.782042 0.514618 3.187120
1296.320457 392.734526 88.342710 0.000000 0.000000 0.000000 0.000000 0.000000 0.000000 -131.035750 0.420198 2.506665 48.964250 2.082236 2.506665 -128.969563 1.198066 29.940802 38.856147 4.134016 1.883716 -134.776850 1.366271 -29.940802 3.458429 -0.001702 3.422736
1306.963577 386.612041 74.027056 0.000000 0.000000 0.000000 0.000000 0.000000 0.000000 -124.469622 -3.284096 -2.506665 55.530378 -4.985317 -2.506665 -109.994856 3.458971 29.940802 37.691309 1.271327 -1.883716 -118.274788 -1.337030 -29.940802 5.098336 -0.093975 3.644843
969.892723 442.572198 56.305887 0.000000 0.000000 0.000000 0.000000 0.000000 0.000000 41.287575 38.470796 -7.362491 180.000000 -18.030645 -7.362491 30.974696 -2.120996 29.468618 149.025304 -13.741271 -5.621439 15.072869 3.159427 -29.468618 18.000000 0.529406 3.852566
969.876883 442.545207 76.002622 0.000000 0.000000 0.000000 0.000000 0.000000 0.000000 42.241956 36.586302 -11.755705 180.000000 -13.760330 -11.755705 30.826133 8.025499 28.531695 149.173867 1.815260 -9.270510 14.823070 -8.539552 -28.531695 18.000000 0.142696 4.045085
969.859960 442.518116 69.956054 0.000000 0.000000 0.000000 0.000000 0.000000 0.000000 43.199779 2.131757 -15.410265 180.000000 9.095596 -15.410265 30.649504 -2.303381 27.144812 149.350496 11.031455 -12.773379 14.587557 -0.117563 -27.144812 18.000000 -0.259785 4.221640
969.841956 442.490926 49.839656 0.000000 0.000000 0.000000 0.000000 0.000000 0.000000 44.157210 -0.982150 -18.096541 180.000000 27.469336 -18.096541 30.446417 -5.306588 25.329838 149.553583 16.867473 -16.074804 14.366154 -6.326416 -25.329838 18.000000 -0.131286 4.381533
969.822873 442.463637 61.478762 0.000000 0.000000 0.000000 0.000000 0.000000 0.000000 45.110117 -25.926420 -19.645745 180.000000 12.473382 -19.645745 30.218633 1.271443 23.115397 149.781367 16.988392 -19.122720 14.158653 -0.433160 -23.115397 18.000000 -0.009014 4.524135
969.802712 442.436251 61.968494 0.000000 0.000000 0.000000 0.000000 0.000000 0.000000 46.054109 -20.192554 -19.960535 180.000000 17.295612 -19.960535 29.968037 -9.627509 20.536413 150.031963 4.189448 -21.869059 13.964823 5.279924 -20.536413 18.000000 -0.331797 4.648882
1187.040939 541.658249 49.000175 0.000000 0.000000 0.000000 0.000000 0.000000 0.000000 82.806623 -1.552688 -19.021130 -97.193377 11.881253 -19.021130 45.395981 -2.873787 17.633558 -156.144455 -2.278836 -24.270510 0.000000 0.000000 0.000000 0.000000 0.000000 0.000000
1182.242889 522.024286 70.313517 0.000000 0.000000 0.000000 0.000000 0.000000 0.000000 -105.721938 -9.072874 -16.886559 74.278062 -6.549864 -16.886559 -155.708006 -1.885764 14.452610 -157.302521 -2.167757 -26.289200 0.000000 0.000000 0.000000 2.684983 0.230177 4.842916
1180.914459 527.065626 61.100728 0.000000 0.000000 0.000000 0.000000 0.000000 0.000000 88.055617 -2.672046 -13.690942 -91.944383 -1.965582 -13.690942 -158.862018 -2.335890 11.043737 -151.747289 -2.459052 -27.893295 0.000000 0.000000 0.000000 0.000000 0.000000 0.000000
1236.800194 541.387432 36.327282 0.000000 0.000000 0.000000 0.000000 0.000000 0.000000 -85.588400 -1.146636 -9.635073 94.411600 -0.031533 -9.635073 -159.297106 4.927883 7.460697 -157.915391 -2.276524 -29.057495 26.607362 1.642832 -7.460697 14.926890 0.343251 4.960574
1161.066513 575.006626 59.160700 0.000000 0.000000 0.000000 0.000000 0.000000 0.000000 -81.021168 -3.175337 -4.973798 98.978832 0.651652 -4.973798 -102.851701 -1.865181 3.759997 -157.041007 -2.296623 -29.763441 21.429890 1.239237 -3.759997 10.859432 0.869135 4.990134
1255.636253 512.645942 53.846459 0.000000 0.000000 0.000000 0.000000 0.000000 0.000000 77.832564 0.119029 -0.000000 -102.167436 -1.462966 -0.000000 -158.264834 -2.391932 0.000000 -130.745502 -4.694644 -30.000000 -157.699225 -1.798329 -0.000000 0.000000 0.000000 0.000000
